<svg width="37" height="32" viewBox="0 0 37 32" fill="none" xmlns="http://www.w3.org/2000/svg">
<g clip-path="url(#clip0_101_43)">
<path d="M26.2504 24.0405L29.3042 29.3045H32.3784C29.554 24.4259 26.748 19.5728 23.9327 14.7037C22.1353 11.5952 20.3342 8.48022 18.5222 5.34792L12.3666 15.9766H9.28031C11.7896 11.6385 14.2766 7.33694 16.7946 2.9819L18.5186 0L23.3988 8.43591C27.9227 16.256 32.4334 24.0533 36.97 31.8957H27.7111C27.2526 31.1046 25.5034 28.0863 24.6911 26.6845H9.25989C9.80169 25.7456 10.293 24.8942 10.7844 24.0465L26.2504 24.0405Z" fill="#E92D28"/>
<path d="M24.5596 31.8957L23.1161 29.2901H4.66837L9.29953 21.2886H24.6622L18.521 10.6743C18.0163 11.544 17.5606 12.3321 17.1101 13.1111L16.9785 13.3386L20.0467 18.6698H7.73178C7.69098 18.7372 7.65204 18.8009 7.61457 18.8621C7.53951 18.9847 7.47032 19.0978 7.40382 19.213C5.11086 23.1915 2.8111 27.1661 0.504533 31.1367C0.443048 31.232 0.361116 31.3818 0.273391 31.5422C0.208899 31.6601 0.141222 31.7838 0.0762939 31.8957H24.5596Z" fill="#E92D28"/>
</g>
<defs>
<clipPath id="clip0_101_43">
<rect width="37" height="32" fill="white"/>
</clipPath>
</defs>
</svg>
